<svg xmlns="http://www.w3.org/2000/svg" xmlns:xlink="http://www.w3.org/1999/xlink" contentStyleType="text/css" height="296px" preserveAspectRatio="none" style="width:246px;height:296px;background:#FFFFFF;" version="1.1" viewBox="0 0 246 296" width="246px" zoomAndPan="magnify"><defs><filter height="300%" id="f1fk1sohfinjox" width="300%" x="-1" y="-1"><feGaussianBlur result="blurOut" stdDeviation="2.0"/><feColorMatrix in="blurOut" result="blurOut2" type="matrix" values="0 0 0 0 0 0 0 0 0 0 0 0 0 0 0 0 0 0 .4 0"/><feOffset dx="4.0" dy="4.0" in="blurOut2" result="blurOut3"/><feBlend in="SourceGraphic" in2="blurOut3" mode="normal"/></filter></defs><g><text fill="#000000" font-family="sans-serif" font-size="14" font-weight="bold" lengthAdjust="spacing" textLength="218.6885" x="10" y="22.9951">Inheritance - Class Diagram</text><!--class Parent--><g id="elem_Parent"><rect codeLine="6" fill="#FEFECE" filter="url(#f1fk1sohfinjox)" height="80.5938" id="Parent" style="stroke:#A80036;stroke-width:1.0;" width="102.3916" x="72.0391" y="44.2969"/><ellipse cx="98.1265" cy="60.2969" fill="#ADD1B2" rx="11" ry="11" style="stroke:#A80036;stroke-width:1.0;"/><path d="M101.0952,65.9375 Q100.5171,66.2344 99.8765,66.375 Q99.2358,66.5313 98.5327,66.5313 Q96.0327,66.5313 94.7046,64.8906 Q93.3921,63.2344 93.3921,60.1094 Q93.3921,56.9844 94.7046,55.3281 Q96.0327,53.6719 98.5327,53.6719 Q99.2358,53.6719 99.8765,53.8281 Q100.5327,53.9844 101.0952,54.2813 L101.0952,57 Q100.4702,56.4219 99.8765,56.1563 Q99.2827,55.875 98.6577,55.875 Q97.314,55.875 96.6265,56.9531 Q95.939,58.0156 95.939,60.1094 Q95.939,62.2031 96.6265,63.2813 Q97.314,64.3438 98.6577,64.3438 Q99.2827,64.3438 99.8765,64.0781 Q100.4702,63.7969 101.0952,63.2188 L101.0952,65.9375 Z " fill="#000000"/><text fill="#000000" font-family="sans-serif" font-size="14" lengthAdjust="spacing" textLength="45.7529" x="114.5903" y="65.1436">Parent</text><line style="stroke:#A80036;stroke-width:1.0;" x1="73.0391" x2="173.4307" y1="76.2969" y2="76.2969"/><ellipse cx="83.0391" cy="89.9453" fill="none" rx="3" ry="3" style="stroke:#038048;stroke-width:1.0;"/><text fill="#000000" font-family="sans-serif" font-size="14" lengthAdjust="spacing" textLength="56.1162" x="92.0391" y="93.292">int m_id</text><line style="stroke:#A80036;stroke-width:1.0;" x1="73.0391" x2="173.4307" y1="100.5938" y2="100.5938"/><ellipse cx="83.0391" cy="114.2422" fill="#84BE84" rx="3" ry="3" style="stroke:#038048;stroke-width:1.0;"/><text fill="#000000" font-family="sans-serif" font-size="14" lengthAdjust="spacing" textLength="76.3916" x="92.0391" y="117.5889">int get_id()</text></g><!--class Child--><g id="elem_Child"><rect codeLine="11" fill="#FEFECE" filter="url(#f1fk1sohfinjox)" height="80.5938" id="Child" style="stroke:#A80036;stroke-width:1.0;" width="151.6104" x="47.0391" y="202.2969"/><ellipse cx="100.937" cy="218.2969" fill="#ADD1B2" rx="11" ry="11" style="stroke:#A80036;stroke-width:1.0;"/><path d="M103.9058,223.9375 Q103.3276,224.2344 102.687,224.375 Q102.0464,224.5313 101.3433,224.5313 Q98.8433,224.5313 97.5151,222.8906 Q96.2026,221.2344 96.2026,218.1094 Q96.2026,214.9844 97.5151,213.3281 Q98.8433,211.6719 101.3433,211.6719 Q102.0464,211.6719 102.687,211.8281 Q103.3433,211.9844 103.9058,212.2813 L103.9058,215 Q103.2808,214.4219 102.687,214.1563 Q102.0933,213.875 101.4683,213.875 Q100.1245,213.875 99.437,214.9531 Q98.7495,216.0156 98.7495,218.1094 Q98.7495,220.2031 99.437,221.2813 Q100.1245,222.3438 101.4683,222.3438 Q102.0933,222.3438 102.687,222.0781 Q103.2808,221.7969 103.9058,221.2188 L103.9058,223.9375 Z " fill="#000000"/><text fill="#000000" font-family="sans-serif" font-size="14" lengthAdjust="spacing" textLength="35.3145" x="121.437" y="223.1436">Child</text><line style="stroke:#A80036;stroke-width:1.0;" x1="48.0391" x2="197.6494" y1="234.2969" y2="234.2969"/><ellipse cx="58.0391" cy="247.9453" fill="none" rx="3" ry="3" style="stroke:#038048;stroke-width:1.0;"/><text fill="#000000" font-family="sans-serif" font-size="14" lengthAdjust="spacing" textLength="111.043" x="67.0391" y="251.292">double m_value</text><line style="stroke:#A80036;stroke-width:1.0;" x1="48.0391" x2="197.6494" y1="258.5938" y2="258.5938"/><ellipse cx="58.0391" cy="272.2422" fill="#84BE84" rx="3" ry="3" style="stroke:#038048;stroke-width:1.0;"/><text fill="#000000" font-family="sans-serif" font-size="14" lengthAdjust="spacing" textLength="125.6104" x="67.0391" y="275.5889">double getValue()</text></g><!--reverse link Parent to Child--><g id="link_Parent_Child"><path codeLine="16" d="M123.0391,143.5669 C123.0391,167.0369 123.0391,178.6469 123.0391,202.0969 " fill="none" id="Parent-backto-Child" style="stroke:#A80036;stroke-width:1.0;"/><polygon fill="none" points="123.0391,125.5669,117.0391,143.5669,129.0391,143.5669,123.0391,125.5669" style="stroke:#A80036;stroke-width:1.0;"/><text fill="#000000" font-family="sans-serif" font-size="13" lengthAdjust="spacing" textLength="73.7153" x="124.0391" y="168.3638">Inheritance</text></g><!--SRC=[JKwx3i8m3Dpz5Hv1A3-0sCh2niHQcSPgBH97IbmOW7yd42frkplTgzn4CQV202OM64ywSHOZ7HWTTe5AmQFGc2a2mF3ZPygiXaz0t4a5iHU_u96jiiqMtekxcoJuPlPfljQDsDyfpBnIQkhobLhkttzuEPyUwbh3Vdtj0m00]--></g></svg>